<svg width="1440" height="600" viewBox="0 0 1440 600" fill="none" xmlns="http://www.w3.org/2000/svg">
  <rect width="1440" height="600" fill="#2563EB"/>
  <path d="M1440 0H0V600H1440V0Z" fill="url(#paint0_linear_0_1)"/>
  <g opacity="0.3">
    <path d="M-147.5 338.5C-21.3 338.5 81.5 235.7 81.5 109.5C81.5 -16.7 -21.3 -119.5 -147.5 -119.5C-273.7 -119.5 -376.5 -16.7 -376.5 109.5C-376.5 235.7 -273.7 338.5 -147.5 338.5Z" fill="url(#paint1_linear_0_1)"/>
    <path d="M1439.5 338.5C1565.7 338.5 1668.5 235.7 1668.5 109.5C1668.5 -16.7 1565.7 -119.5 1439.5 -119.5C1313.3 -119.5 1210.5 -16.7 1210.5 109.5C1210.5 235.7 1313.3 338.5 1439.5 338.5Z" fill="url(#paint2_linear_0_1)"/>
    <path d="M1439.5 719.5C1565.7 719.5 1668.5 616.7 1668.5 490.5C1668.5 364.3 1565.7 261.5 1439.5 261.5C1313.3 261.5 1210.5 364.3 1210.5 490.5C1210.5 616.7 1313.3 719.5 1439.5 719.5Z" fill="url(#paint3_linear_0_1)"/>
    <path d="M-147.5 719.5C-21.3 719.5 81.5 616.7 81.5 490.5C81.5 364.3 -21.3 261.5 -147.5 261.5C-273.7 261.5 -376.5 364.3 -376.5 490.5C-376.5 616.7 -273.7 719.5 -147.5 719.5Z" fill="url(#paint4_linear_0_1)"/>
  </g>
  <defs>
    <linearGradient id="paint0_linear_0_1" x1="720" y1="0" x2="720" y2="600" gradientUnits="userSpaceOnUse">
      <stop stop-color="#2563EB"/>
      <stop offset="1" stop-color="#1D4ED8"/>
    </linearGradient>
    <linearGradient id="paint1_linear_0_1" x1="-147.5" y1="-119.5" x2="-147.5" y2="338.5" gradientUnits="userSpaceOnUse">
      <stop stop-color="white" stop-opacity="0.2"/>
      <stop offset="1" stop-color="white" stop-opacity="0"/>
    </linearGradient>
    <linearGradient id="paint2_linear_0_1" x1="1439.5" y1="-119.5" x2="1439.5" y2="338.5" gradientUnits="userSpaceOnUse">
      <stop stop-color="white" stop-opacity="0.2"/>
      <stop offset="1" stop-color="white" stop-opacity="0"/>
    </linearGradient>
    <linearGradient id="paint3_linear_0_1" x1="1439.5" y1="261.5" x2="1439.5" y2="719.5" gradientUnits="userSpaceOnUse">
      <stop stop-color="white" stop-opacity="0.2"/>
      <stop offset="1" stop-color="white" stop-opacity="0"/>
    </linearGradient>
    <linearGradient id="paint4_linear_0_1" x1="-147.5" y1="261.5" x2="-147.5" y2="719.5" gradientUnits="userSpaceOnUse">
      <stop stop-color="white" stop-opacity="0.2"/>
      <stop offset="1" stop-color="white" stop-opacity="0"/>
    </linearGradient>
  </defs>
</svg>
